<svg xmlns="http://www.w3.org/2000/svg"  viewBox="0 0 64 64" width="64px" height="64px"><path fill="#6e727a" d="M60.94,57.53l-1.46.38a110,110,0,0,1-55,0l-1.46-.38A2,2,0,0,1,1.65,55L11,26V21A18,18,0,0,1,29,3h6A18,18,0,0,1,53,21v5l9.35,29A2,2,0,0,1,60.94,57.53Z"/><path fill="#888ea0" d="M3.74,57.71,15,30a8,8,0,0,1,7.41-5H24a8,8,0,0,1,3.79,1,8.87,8.87,0,0,0,8.41,0A8,8,0,0,1,40,25h1.61A8,8,0,0,1,49,30l11.1,27.38L32,62.54Z"/><path fill="#b5c4e0" d="M29 34h0a5 5 0 0 0-5-5H23a6 6 0 0 0-5.56 3.75l-.05.13A3 3 0 0 0 20.21 37H26A3 3 0 0 0 29 34zM35 34h0a5 5 0 0 1 5-5h1a6 6 0 0 1 5.56 3.75l.05.13A3 3 0 0 1 43.79 37H38A3 3 0 0 1 35 34z"/><path fill="#a3abb7" d="M42 56L32.25 62 22 56 11 40 17.21 41 46.79 41 53 40 42 56z"/><path fill="#6e727a" d="M32 41L20 55 44 55 32 41z"/><path fill="#7e8189" d="M52.74,18.08h0A18,18,0,0,0,35,3H29A17.92,17.92,0,0,0,17.69,7l.8.8A3.91,3.91,0,0,0,23,8.49,14.33,14.33,0,0,1,29.34,7h5.32C41,7,46.55,11.24,49.09,17.35A2.24,2.24,0,0,0,52.74,18.08Z"/><rect width="6" height="27" x="29" y="1" fill="#7e8189" rx="2" ry="2"/><path fill="#b5c4e0" d="M32 38A2 2 0 1 0 32 42 2 2 0 1 0 32 38zM45 53A2 2 0 1 0 45 57 2 2 0 1 0 45 53zM19 53A2 2 0 1 0 19 57 2 2 0 1 0 19 53z"/><path fill="#888ea0" d="M27 49a1 1 0 0 0-1 1v2a1 1 0 0 0 2 0V50A1 1 0 0 0 27 49zM32 46a1 1 0 0 0-1 1v5a1 1 0 0 0 2 0V47A1 1 0 0 0 32 46zM37 49a1 1 0 0 0-1 1v2a1 1 0 0 0 2 0V50A1 1 0 0 0 37 49z"/><path fill="#8d6c9f" d="M24 28H23a7 7 0 0 0-6.49 4.37l-.05.13A4 4 0 0 0 20.21 38H26a4 4 0 0 0 4-4A6 6 0 0 0 24 28zm2 8H20.21a2 2 0 0 1-1.85-2.75l.05-.13A5 5 0 0 1 23 30h1a4 4 0 0 1 4 4A2 2 0 0 1 26 36zM43.79 38a4 4 0 0 0 3.71-5.5l-.05-.12A7 7 0 0 0 41 28H40a6 6 0 0 0-6 6 4 4 0 0 0 4 4zM36 34a4 4 0 0 1 4-4h1a5 5 0 0 1 4.63 3.12l.05.13A2 2 0 0 1 43.79 36H38A2 2 0 0 1 36 34zM47 40H38a1 1 0 0 0 0 2h9a1 1 0 0 0 0-2zM26 40H17a1 1 0 0 0 0 2h9a1 1 0 0 0 0-2zM41.58 7.51a14.91 14.91 0 0 0-2.3-.9 1 1 0 1 0-.57 1.92 12.84 12.84 0 0 1 2 .78 1 1 0 0 0 .88-1.8zM45 9.82a1 1 0 0 0-1.33 1.49 13.12 13.12 0 0 1 3.27 4.54 1 1 0 1 0 1.84-.79A15.13 15.13 0 0 0 45 9.82z"/><path fill="#8d6c9f" d="M63.3,54.67,54,25.84V21A19,19,0,0,0,35.83,2,3,3,0,0,0,33,0H31a3,3,0,0,0-2.83,2A19,19,0,0,0,10,21v4.84L.7,54.67A3,3,0,0,0,2.8,58.5l1.46.38a110.84,110.84,0,0,0,24.93,3.45l1.15.76a3,3,0,0,0,3.33,0l1.15-.76a110.92,110.92,0,0,0,24.93-3.45l1.46-.38a3,3,0,0,0,2.11-3.83ZM30,3a1,1,0,0,1,1-1h2a1,1,0,0,1,1,1V26a1,1,0,0,1-1,1H31a1,1,0,0,1-1-1ZM2.6,55.29l9.35-29L12,21A17,17,0,0,1,28,4.05V25a9,9,0,0,0-4-1H22.39A9,9,0,0,0,14,29.62L3.16,56.49a1,1,0,0,1-.48-.41A1,1,0,0,1,2.6,55.29Zm28.84,6.14L23.3,56H40.7l-8.14,5.43A1,1,0,0,1,31.45,61.43ZM19,54a1,1,0,1,1-1,1A1,1,0,0,1,19,54Zm2.82,0a3,3,0,0,0-.23-.5L30.46,43h3.07l8.88,10.5a3,3,0,0,0-.23.5ZM33,41H31V40a1,1,0,0,1,2,0ZM45,54a1,1,0,1,1-1,1A1,1,0,0,1,45,54Zm-2.21,3a3,3,0,1,0,3.28-4.81l5.77-8.65a1,1,0,1,0-1.66-1.11L43.79,52,35,41.63V40a3,3,0,0,0-6,0v1.63L20.21,52l-6.38-9.57a1,1,0,0,0-1.66,1.11l5.77,8.65A3,3,0,1,0,21.21,57l4.8,3.2A108.75,108.75,0,0,1,5.1,57L15.9,30.37A7,7,0,0,1,22.39,26H24a7,7,0,0,1,3.32.83,9.39,9.39,0,0,0,1,.45A3,3,0,0,0,31,29h2a3,3,0,0,0,2.7-1.71,9.39,9.39,0,0,0,1-.45A7,7,0,0,1,40,26h1.61a7,7,0,0,1,6.49,4.37L58.9,57A108.79,108.79,0,0,1,38,60.21Zm18.53-.93a1,1,0,0,1-.48.41L50,29.62A9,9,0,0,0,41.61,24H40a9,9,0,0,0-4,1V4.05A17,17,0,0,1,52,21v5.16l9.4,29.13A1,1,0,0,1,61.32,56.08Z"/></svg>